# xmcd
#
# Track frame offsets: 
#        150
#        15157
#        33552
#        48380
#        84742
#        107327
#        129745
#        152430
#        173862
#        209297
#        230805
#        241852
#
# Disc length: 3419 seconds
#
# Revision: 3
# Processed by: cddbd v1.5.2PL0 Copyright (c) Steve Scherf et al.
# Submitted via: ExactAudioCopy v0.99pb5
#
DISCID=900d590c
DTITLE=Various Artist - Navidad Caribena
DYEAR=2003
DGENRE=Salsa
TTITLE0=El Ano Viejo - Celia Cruz
TTITLE1=Nuestra Tradicion - Trovadores
TTITLE2=Mami No Te Pares (Reggaeton) - Ivan y Clemens
TTITLE3=La Papa Caliente - Luis Enrique, Gilberto Santa Rosa, Rey Ruiz
TTITLE3=, Tony Vega, Victor Manuelle
TTITLE4=El Cuerpo Me Pide - Elvis Crespo and Victor Manuelle
TTITLE5=Pidele a Una Estrella - Melina Leon and DLG
TTITLE6=La Fiesta Se Pone Buena - Luis Enrique and Puppy Santiago
TTITLE7=Eliminacion De Feos - Kaos and DLG
TTITLE8=Cantemos - Ashley, Grupo Mania, Milly Quezada, Gilberto Santa 
TTITLE8=Rosa, Victor Manuelle, Elvis Crespo, Danny Rivera, Son By Four
TTITLE8=, Melina Leon, DLG
TTITLE9=Siempre Amigos - Milly Quezada and Gilberto Santa Rosa
TTITLE10=Navidad Sin Verte - India
TTITLE11=Potpourri Navideno (Mamacita, Feliz Navidad, El Burrito Saban
TTITLE11=ero) - Bebu Silvetti and Orchestra
EXTD=YEAR: 2003
EXTT0=
EXTT1=
EXTT2=
EXTT3=
EXTT4=
EXTT5=
EXTT6=
EXTT7=
EXTT8=
EXTT9=
EXTT10=
EXTT11=
PLAYORDER=
